<?xml version="1.0" standalone="no"?>
<!DOCTYPE svg PUBLIC "-//W3C//DTD SVG 20010904//EN"
 "http://www.w3.org/TR/2001/REC-SVG-20010904/DTD/svg10.dtd">
<svg version="1.0" xmlns="http://www.w3.org/2000/svg"
 width="680.000000pt" height="680.000000pt" viewBox="0 0 680.000000 680.000000"
 preserveAspectRatio="xMidYMid meet">

<g transform="translate(0.000000,680.000000) scale(0.100000,-0.100000)"
fill="#000000" stroke="none">
<path d="M3090 3405 l0 -1225 310 0 310 0 0 628 c0 345 4 621 9 614 4 -7 124
-289 267 -627 l259 -615 136 0 137 0 127 333 c134 350 347 907 475 1242 l76
200 147 3 c81 1 147 0 147 -3 0 -2 -147 -391 -327 -862 -179 -472 -328 -870
-331 -886 l-4 -27 736 0 736 0 0 355 0 355 -280 0 c-217 0 -280 3 -280 13 0 6
126 392 279 856 154 464 277 850 274 857 -4 12 -126 14 -772 12 l-766 -3 -17
-50 c-16 -49 -78 -249 -214 -687 -136 -440 -146 -471 -154 -457 -4 8 -98 276
-209 597 -110 320 -203 587 -206 592 -4 6 -168 10 -436 10 l-429 0 0 -1225z"/>
<path d="M1415 4559 c-457 -70 -794 -387 -901 -846 -31 -136 -43 -373 -25
-516 74 -588 483 -973 1065 -1004 489 -25 887 195 1086 601 86 174 129 374
130 591 1 499 -214 880 -604 1070 -170 83 -277 106 -506 110 -102 2 -212 0
-245 -6z m327 -440 c239 -49 405 -212 480 -474 20 -71 23 -101 23 -270 -1
-178 -3 -195 -29 -280 -83 -273 -271 -439 -521 -460 -426 -37 -712 291 -692
790 6 156 30 256 88 374 117 239 391 373 651 320z"/>
</g>
</svg>
